<?xml version="1.0" standalone="no"?><!DOCTYPE svg PUBLIC "-//W3C//DTD SVG 1.1//EN" "http://www.w3.org/Graphics/SVG/1.1/DTD/svg11.dtd"><svg class="icon" width="200px" height="200.00px" viewBox="0 0 1024 1024" version="1.1" xmlns="http://www.w3.org/2000/svg"><path d="M512.0512 1024zM450.816 648.1408l29.2352 29.2864a18.432 18.432 0 0 0 25.9072 0l511.0784-511.0784a18.432 18.432 0 0 0 0-25.9072l-29.2864-29.2352c-3.4304-3.4304-7.9872-5.3248-12.9024-5.3248s-9.5232 1.8944-12.9024 5.3248l-511.0784 511.0784a18.2784 18.2784 0 0 0-0.0512 25.856z" fill="#66CC9A" /><path d="M506.624 677.4272l29.2864-29.2352a18.2784 18.2784 0 0 0 0-25.856L317.4912 413.2352a18.432 18.432 0 0 0-25.9072 0l-29.184 29.2864a18.1248 18.1248 0 0 0 0 25.856l218.4192 209.0496a18.2784 18.2784 0 0 0 25.8048 0z" fill="#66CC9A" /><path d="M953.344 435.8656a447.8976 447.8976 0 0 1-441.2928 524.1856 448 448 0 0 1 0-896 446.976 446.976 0 0 1 166.144 32.2048l17.9712-61.952A509.952 509.952 0 0 0 512.0512 0C229.3248 0 0 229.2736 0 512s229.2736 512 512 512 512-229.2736 512-512a511.488 511.488 0 0 0-9.216-96.8704l-61.44 20.736z" fill="#66CC9A" /></svg>